<svg xmlns="http://www.w3.org/2000/svg" viewBox="0 0 512 512"
    style="enable-background:new 0 0 512 512" xml:space="preserve"><path style="fill:#574865" d="M512 256c0 70.692-28.654 134.692-74.981 181.019S326.692 512 256 512s-134.692-28.654-181.019-74.981S0 326.692 0 256 28.654 121.308 74.981 74.981 185.308 0 256 0s134.692 28.654 181.019 74.981S512 185.308 512 256z"/><path style="fill:#483c56" d="M478.4 382.85c-10.36 18.135-22.88 34.882-37.207 49.891a257.15 257.15 0 0 1-64.752 49.212 253.127 253.127 0 0 1-17.471 8.486c-10.215 4.495-20.777 8.34-31.636 11.485a254.762 254.762 0 0 1-41.095 8.307c-2.571.302-5.154.568-7.749.797A261.925 261.925 0 0 1 256 512c-3.42 0-6.825-.068-10.214-.201s-6.761-.334-10.116-.599a252.343 252.343 0 0 1-14.9-1.61c-5.535-.76-11.013-1.698-16.428-2.807s-10.767-2.392-16.052-3.842c-5.62-1.535-11.163-3.257-16.62-5.16s-10.83-3.985-16.11-6.24c-6.805-2.905-13.455-6.095-19.938-9.555s-12.798-7.19-18.933-11.175c-29.345-19.07-54.537-43.99-73.924-73.106S9.8 335.275 3.68 299.42c13.875-19.785 32.175-36.245 53.463-47.941s45.563-18.629 71.388-19.359l.94-.029c.313-.009.625-.016.94-.021l1.35-.014a159.104 159.104 0 0 1 27.126 2.085 156.462 156.462 0 0 1 24.434 6.059h.01l.18.061c.06.021.12.044.18.069 6.95 2.34 13.683 5.152 20.16 8.4s12.7 6.93 18.63 11.01c1.575 1.08 3.128 2.19 4.66 3.327s3.045 2.303 4.54 3.492a159.02 159.02 0 0 1 10.42 9.11 157.12 157.12 0 0 1 14.42 15.73H256.531c.005.005.008.01.01.015s.005.01.01.015a148.755 148.755 0 0 1 3.742 4.866 152.832 152.832 0 0 1 3.548 5.024 124.061 124.061 0 0 1 3.13 4.78 156.846 156.846 0 0 1 16.28 34.619c2.47-1.26 4.977-2.457 7.52-3.588s5.12-2.196 7.73-3.191c3.955-1.52 7.99-2.882 12.095-4.082a158.145 158.145 0 0 1 15.86-3.759c1.12-.203 2.245-.394 3.375-.569 4.095-.66 8.245-1.16 12.442-1.495s8.442-.505 12.728-.505c9.37 0 18.55.815 27.472 2.38s17.587 3.88 25.927 6.88l.005.005.005.005c13.875 4.975 26.853 11.84 38.621 20.285s22.329 18.471 31.369 29.766z"/><path style="fill:#c33" d="M407.182 331.046c-17.84-25.899-23.269-44.257-24.239-56.14-.97-11.883 2.521-17.291 2.521-17.291 4.788-34.704 5.178-64.142 2.779-89.015s-7.588-45.181-13.959-61.623c-7.744-25.001-22.941-46.551-42.886-61.852s-44.639-24.35-71.378-24.35a116.14 116.14 0 0 0-37.919 6.331c-11.918 4.106-23.004 10.095-32.932 17.623l-.256-.083-.256-.083S168.515 55.66 151.281 87.84s-31.559 85.443-19.924 169.776c0 0 3.49 5.408 2.521 17.291-.97 11.883-6.399 30.241-24.239 56.14 0 0-13.598 18.078-15.458 38.752-1.86 20.674 8.017 43.945 54.967 54.329h218.524c46.95-10.384 56.828-33.655 54.967-54.329-1.859-20.675-15.457-38.753-15.457-38.753z"/><path style="fill:#b93333" d="M306.026 29.441a117.384 117.384 0 0 0-13.886 6.786 119.802 119.802 0 0 0-12.839 8.5l-.253-.083-.253-.083s-20.142 11.097-37.375 43.278-31.557 85.443-19.922 169.775c0 0 3.488 5.409 2.517 17.292-.971 11.883-6.401 30.241-24.236 56.138 0 0-13.598 18.078-15.458 38.753-1.86 20.674 8.017 43.945 54.966 54.328h-88.262c-46.949-10.384-56.826-33.654-54.966-54.328 1.86-20.674 15.458-38.753 15.458-38.753 17.841-25.897 23.27-44.255 24.24-56.138.97-11.883-2.521-17.292-2.521-17.292-11.635-84.332 2.689-137.595 19.922-169.775s37.375-43.278 37.375-43.278l.259.083.259.083c9.929-7.529 21.016-13.517 32.933-17.623a116.139 116.139 0 0 1 37.913-6.33c7.793 0 15.41.768 22.787 2.235a116.127 116.127 0 0 1 21.342 6.432z"/><path style="fill:#efa580" d="M393.14 472.2a253.757 253.757 0 0 1-34.17 18.239c-10.215 4.495-20.777 8.34-31.636 11.485a254.762 254.762 0 0 1-41.095 8.307c-2.571.302-5.154.568-7.749.797A261.925 261.925 0 0 1 256 512c-3.42 0-6.825-.068-10.214-.201s-6.761-.334-10.116-.599a252.343 252.343 0 0 1-14.9-1.61c-5.535-.76-11.013-1.698-16.428-2.807s-10.767-2.392-16.052-3.842c-5.62-1.535-11.163-3.257-16.62-5.16s-10.83-3.985-16.11-6.24c-6.805-2.905-13.455-6.095-19.938-9.555s-12.798-7.19-18.933-11.175l3.955-27.31 3.955-27.31.06-.42.06-.42.295-2.025.295-2.025c.155-1.06.32-2.117.499-3.17s.371-2.1.581-3.14c.205-1.04.425-2.075.656-3.105s.474-2.055.724-3.075V398.801c.11-.415.217-.825.326-1.232s.219-.812.334-1.217c.25-.95.515-1.892.793-2.829s.568-1.866.868-2.791c.11-.335.217-.665.326-.994s.219-.656.334-.986c.34-.985.692-1.965 1.055-2.941s.735-1.949 1.115-2.919c1.68-4.195 3.585-8.275 5.698-12.224a123.323 123.323 0 0 1 14.283-21.106c.22-.255.44-.515.663-.774s.447-.516.677-.766c.215-.25.435-.5.656-.749s.444-.496.664-.741a149.936 149.936 0 0 1 1.73-1.88l.766-.809c.256-.269.514-.536.774-.801a58.363 58.363 0 0 1 1.31-1.32c.095-.1.193-.197.29-.293l.29-.286c.07-.07.143-.14.215-.21s.145-.14.215-.21c.07-.07.14-.14.211-.208s.144-.136.219-.201l.211-.209c.071-.069.144-.136.219-.201a44.458 44.458 0 0 1 1.34-1.26c.175-.165.35-.328.526-.49l.534-.49.561-.5c.188-.167.379-.335.569-.5.06-.055.12-.108.179-.159s.116-.101.171-.151l.255-.224c.085-.074.17-.146.255-.216.15-.13.302-.26.456-.39l.464-.39c.04-.035.082-.07.125-.105s.085-.07.125-.105c.25-.21.5-.42.753-.629s.508-.416.768-.621a99.99 99.99 0 0 1 3.66-2.85c.15-.115.3-.227.45-.339s.3-.221.45-.331c.145-.11.292-.217.441-.324s.299-.211.449-.316c.015-.015.03-.027.045-.039s.03-.021.045-.031c.15-.11.3-.218.45-.324l.45-.316c.14-.105.285-.207.431-.307s.294-.197.439-.292c.05-.04.098-.078.145-.113s.095-.068.145-.097l1.05-.704a92.022 92.022 0 0 1 2.111-1.38c.356-.227.714-.451 1.069-.676a51.621 51.621 0 0 1 1.38-.839c.13-.08.26-.158.39-.235a26.895 26.895 0 0 0 .445-.27 99.824 99.824 0 0 1 1.091-.643c.346-.2.694-.398 1.044-.593v-.01c.07-.045.142-.088.216-.13s.149-.085.224-.13c.235-.135.47-.265.705-.394s.47-.256.705-.386a3.656 3.656 0 0 1 .28-.14 31.657 31.657 0 0 1 1.09-.58c.02-.015.045-.027.071-.04s.054-.025.079-.04c.46-.24.923-.475 1.386-.707s.929-.462 1.394-.692l.44-.215.44-.215c.09-.04.18-.082.27-.126l.27-.134.085-.04.085-.04.805-.374c.267-.124.535-.246.805-.366l.365-.165.365-.165c.105-.045.21-.093.315-.14s.21-.095.315-.14l.14-.06.14-.06a18.929 18.929 0 0 1 .56-.24 19.137 19.137 0 0 1 .93-.4 86.67 86.67 0 0 1 2.56-1.029 12.324 12.324 0 0 1 .73-.28l.226-.09a14.59 14.59 0 0 1 .364-.14c.042-.018.085-.035.13-.05l.165-.06.165-.06.37-.135.37-.135c.005-.005.01-.008.015-.009l.015-.001a56.774 56.774 0 0 1 1.68-.599l2.505-.865 2.505-.865.001-.005a.01.01 0 0 1 .009-.005l1.13-.39 1.13-.39h.01l1.065-.37 1.065-.37.795-.275.795-.275 2.54-.88 2.54-.88 1.245-.425 1.245-.425 2.815-.98 2.815-.98c.005 0 .01-.002.015-.005s.01-.005.015-.005c.86-.3 1.585-.85 2.095-1.554s.805-1.561.805-2.476v-40.92h52.23v41.6c0 .835.243 1.632.675 2.307s1.055 1.227 1.815 1.572l1.81.82 1.81.82 4.24 1.92 4.24 1.92.205.095.205.095 3.145 1.06 3.145 1.06a37.99 37.99 0 0 1 1.39.479c.285.1.567.203.85.305s.565.205.85.305a54.665 54.665 0 0 1 1.81.69 100.074 100.074 0 0 1 2.114.841c.314.129.626.259.936.389a88.982 88.982 0 0 1 3.87 1.699c.32.15.637.3.954.451s.631.304.946.459c.535.26 1.065.522 1.594.789s1.056.536 1.586.811c.1.05.197.103.294.155s.191.105.286.155l.219.115c.071.038.141.075.211.115l.08.045.08.045c.83.445 1.647.9 2.459 1.364s1.616.936 2.421 1.417c.28.17.56.34.84.512s.56.347.84.527c.14.085.28.17.42.257s.28.174.42.263c.33.21.658.422.984.638s.651.433.976.653c.255.16.508.325.758.494s.497.341.742.516c.325.22.65.445.974.672s.646.457.966.687l.555.406c.185.136.37.274.555.414.34.24.675.488 1.008.739s.663.506.992.761c.435.335.87.673 1.304 1.015s.866.69 1.296 1.045c.415.34.832.685 1.249 1.034s.831.701 1.241 1.057c.415.35.823.705 1.227 1.065s.807.725 1.212 1.095a93.333 93.333 0 0 1 4.7 4.51c.38.385.76.772 1.136 1.162s.749.782 1.114 1.177c.35.38.7.76 1.049 1.143a105.588 105.588 0 0 1 1.202 1.343c.056.063.114.125.169.185.315.365.632.733.949 1.103s.631.743.941 1.118c.165.195.333.392.5.592s.335.403.5.607a56.686 56.686 0 0 1 .97 1.211c.015.02.03.037.045.055s.03.035.045.055a2.448 2.448 0 0 0 .169.21c.21.265.418.532.625.802l.625.818c.275.35.543.705.808 1.062s.528.717.793 1.077c1.64 2.255 3.205 4.568 4.691 6.936a120.624 120.624 0 0 1 6.67 12.12 122.644 122.644 0 0 1 2.249 4.974c.145.34.29.68.433 1.02s.283.68.418 1.02c.09.215.175.427.26.64s.17.425.26.64c.11.28.22.562.329.847s.216.572.321.862a150.357 150.357 0 0 1 .99 2.73c.115.33.23.66.342.991s.223.664.328.999l.299.906c.099.303.196.609.291.914a87.74 87.74 0 0 1 1.23 4.21 57.386 57.386 0 0 1 .54 2.041c.085.305.163.61.239.915s.151.61.231.915c.02.095.043.19.065.286s.045.194.065.294a160.803 160.803 0 0 1 .83 3.77l.164.819c.054.272.106.541.156.811.055.315.113.625.169.934s.111.616.161.926c.055.305.11.61.161.915s.099.61.139.915c.03.165.055.33.08.495s.05.33.08.495l.15 1.056.15 1.064c.015.08.028.163.039.246l.031.254.33 2.575.33 2.575.06.485.06.485 2.845 22.13 2.845 22.13.53 4.145.528 4.139z"/><path style="fill:#e98456" d="M271.5 260.59v40.92c0 .915-.295 1.773-.806 2.476a4.366 4.366 0 0 1-2.134 1.564l-.795.275-.795.275-2.015.705-2.015.705-1.25.425-1.25.425-2.535.88-2.535.88-.8.275-.8.275-2.195.76-2.195.76c-.005 0-.008.003-.009.005l-.001.005-2.505.865-2.505.865c-3.29 1.135-6.505 2.415-9.644 3.827s-6.201 2.957-9.186 4.622l-.229.13-.221.13v.01c-1.635.925-3.25 1.89-4.84 2.894s-3.155 2.046-4.69 3.126c-3.97 2.77-7.758 5.785-11.345 9.019s-6.975 6.686-10.145 10.331c-.23.25-.455.507-.678.766s-.443.519-.662.774c-.22.265-.44.527-.657.791s-.433.529-.643.799c-.79.97-1.567 1.953-2.329 2.946a109.45 109.45 0 0 0-2.978 4.07 80.57 80.57 0 0 0-.732 1.064c-2.515 3.67-4.835 7.487-6.946 11.436s-4.014 8.029-5.694 12.224c-.38.97-.753 1.942-1.115 2.919a139.017 139.017 0 0 0-1.393 3.927c-.11.328-.218.659-.323.994-.3.925-.59 1.855-.867 2.791s-.543 1.879-.793 2.829c-.12.405-.23.81-.337 1.217s-.212.817-.322 1.232V398.808c-.255 1.02-.498 2.045-.729 3.075s-.451 2.065-.661 3.105c-.205 1.04-.395 2.087-.572 3.14s-.343 2.11-.497 3.17l-.93 6.415-.93 6.415-3.855 26.605-3.855 26.605c1.03.975 2.07 1.94 3.119 2.895s2.106 1.9 3.171 2.835l1.366 1.184c.456.394.914.786 1.374 1.177l.02.02.02.02a318.229 318.229 0 0 0 2.7 2.25c.01.005.02.013.031.021l.039.029c.47.385.94.767 1.411 1.147s.944.757 1.419 1.132c.495.4.995.795 1.497 1.186s1.008.779 1.513 1.164a605.134 605.134 0 0 0 2.51 1.9c.53.39 1.058.778 1.588 1.164a195.259 195.259 0 0 0 3.053 2.184 297.337 297.337 0 0 0 2.954 2.039c.497.339.995.674 1.495 1.004.365.245.727.485 1.09.724l1.09.716.38.241a36.43 36.43 0 0 0 .635.413c.085.054.17.106.255.156-5.62-1.535-11.163-3.257-16.62-5.16s-10.83-3.985-16.11-6.24c-6.805-2.905-13.455-6.095-19.938-9.555s-12.798-7.19-18.933-11.175l3.955-27.31 3.955-27.31.06-.42.06-.42.295-2.025.295-2.025c.155-1.06.32-2.117.499-3.17s.371-2.1.581-3.14c.205-1.04.425-2.075.656-3.105s.474-2.055.724-3.075V398.799c.11-.415.217-.825.326-1.232s.219-.812.334-1.217c.25-.95.515-1.892.793-2.829s.568-1.866.868-2.791c.11-.335.217-.665.326-.994s.219-.656.334-.986c.34-.985.692-1.965 1.055-2.941s.735-1.949 1.115-2.919c1.68-4.195 3.585-8.275 5.698-12.224a123.323 123.323 0 0 1 14.283-21.106c.22-.255.44-.515.663-.774s.447-.516.677-.766c.215-.25.435-.5.656-.749s.444-.496.664-.741c.205-.23.412-.457.621-.684s.419-.451.629-.676c.075-.085.152-.172.232-.26s.163-.175.248-.26c.055-.06.11-.118.165-.175s.11-.115.165-.175c.16-.17.32-.337.48-.504s.32-.331.48-.496c.04-.045.082-.087.125-.13s.085-.085.125-.13c.045-.05.092-.098.14-.145s.095-.095.14-.145a5.421 5.421 0 0 1 .37-.37l.33-.33.33-.33c.095-.1.193-.197.29-.293l.29-.286c.07-.07.143-.14.215-.21s.145-.14.215-.21c.07-.07.14-.14.211-.208s.144-.136.219-.201l.211-.209c.071-.069.144-.136.219-.201a22.118 22.118 0 0 1 .89-.839l.225-.21.225-.21.42-.389c.14-.129.28-.256.42-.381.035-.035.073-.07.11-.105s.075-.07.11-.105l.181-.165c.061-.055.124-.11.189-.165.125-.11.25-.223.376-.335a20.926 20.926 0 0 1 .549-.477l.165-.148.01-.01.01-.01c.055-.05.112-.1.171-.15l.179-.15.015-.014a.024.024 0 0 1 .015-.006c.19-.17.38-.335.571-.497s.384-.323.579-.483c.025-.025.05-.047.075-.069s.05-.041.075-.061l.16-.134c.053-.044.105-.086.16-.126.11-.1.223-.195.335-.288s.225-.182.335-.272c.085-.075.172-.147.261-.219s.179-.141.269-.211a35.028 35.028 0 0 1 1.28-1.021c.06-.055.122-.105.185-.154s.125-.096.185-.146l.195-.15.195-.15c.17-.135.342-.27.516-.403s.349-.263.524-.388c.095-.075.193-.15.29-.224s.195-.146.29-.216h.01c.12-.095.24-.187.36-.279s.24-.181.36-.271.242-.18.366-.27l.374-.27.205-.149c.067-.049.135-.096.205-.141l.015-.014a.024.024 0 0 1 .015-.006l.391-.285a62.038 62.038 0 0 1 1.015-.715l.624-.43h.01l1.045-.704a105.262 105.262 0 0 1 1.575-1.04l.53-.336.535-.344a26.7 26.7 0 0 1 .535-.336 9.818 9.818 0 0 1 .6-.359 66.572 66.572 0 0 1 1.56-.96l.055-.03.055-.03a75.996 75.996 0 0 1 2.08-1.201v-.01c.07-.045.142-.088.216-.13s.149-.085.224-.13c.23-.13.46-.257.69-.384s.46-.251.69-.376c.005-.005.01-.008.015-.01s.01-.005.015-.01a3.656 3.656 0 0 1 .28-.14l.11-.06.11-.06c.135-.075.272-.147.411-.22s.279-.145.419-.22c.005-.005.013-.007.02-.01s.015-.005.02-.01c.02-.015.045-.027.071-.04s.054-.025.079-.04l.691-.359a150.448 150.448 0 0 1 1.394-.696l.695-.345.44-.215.44-.215c.09-.04.18-.082.27-.126l.27-.134.085-.04.085-.04.805-.374c.267-.124.535-.246.805-.366l.365-.165.365-.165c.105-.045.21-.093.315-.14s.21-.095.315-.14l.14-.06.14-.06c.03-.01.058-.023.085-.036l.085-.044c.065-.025.13-.053.195-.08s.13-.055.195-.08a19.137 19.137 0 0 1 .93-.4 86.67 86.67 0 0 1 2.56-1.029 12.324 12.324 0 0 1 .73-.28l.226-.09a14.59 14.59 0 0 1 .364-.14c.042-.018.085-.035.13-.05l.165-.06.165-.06.37-.135.37-.135c.005-.005.01-.008.015-.009l.015-.001a56.774 56.774 0 0 1 1.68-.599l2.505-.865 2.505-.865.001-.005a.01.01 0 0 1 .009-.005l1.135-.39 1.135-.39 1.065-.37 1.065-.37.795-.275.795-.275 2.54-.88 2.54-.88 1.245-.425 1.245-.425 2.815-.98 2.815-.98c.005 0 .01-.002.015-.005s.01-.005.015-.005c.86-.3 1.585-.85 2.095-1.554s.805-1.561.805-2.476v-40.92H271.5z"/><path style="fill:#db764c" d="M283.808 275.669h-52.126v22.236c8.688 2.413 17.375 3.62 26.063 3.62 8.688 0 17.375-1.207 26.063-3.62v-22.236z"/><path style="fill:#efa580" d="M349.692 165.714s-11.844-6.932-24.694-20.37c-12.85-13.439-26.706-33.384-30.73-59.413 0 0-15.476 12.053-38.962 28.053s-54.983 35.945-87.026 51.73v31.158c0 23.014 9.157 38.206 21.651 50.57 12.495 12.364 28.328 21.901 41.68 33.603 7.949 6.967 17.662 10.45 27.374 10.45 9.713 0 19.425-3.483 27.375-10.45 12.841-11.254 27.971-20.508 40.221-32.202 12.249-11.693 21.618-25.825 22.934-46.833.03 0 .059.003.088.005s.058.004.088.004c5.013 0 9.551-2.032 12.836-5.317a18.096 18.096 0 0 0 5.317-12.836c0-5.013-2.032-9.551-5.317-12.836a18.095 18.095 0 0 0-12.835-5.316z"/><path style="fill:#e98456" d="M265.994 290.927a40.688 40.688 0 0 1-17.837-.972c-5.827-1.647-11.396-4.618-16.293-8.915-13.352-11.697-29.184-21.233-41.677-33.597-12.494-12.364-21.649-27.557-21.649-50.569v-31.162c32.041-15.782 63.536-35.728 87.021-51.727s38.96-28.054 38.96-28.054a98.572 98.572 0 0 0 3.801 15.782 103.43 103.43 0 0 0 5.849 14.107c-9.213 6.502-20.456 14.195-32.996 22.281s-26.374 16.562-40.767 24.632a51.758 51.758 0 0 0-19.351 18.975 51.658 51.658 0 0 0-7.104 26.149c0 22.645 8.863 37.716 21.051 49.974 12.185 12.259 27.696 21.704 40.992 33.096z"/><path style="fill:#9b3530" d="M193.715 162.436a3.501 3.501 0 0 1-1.707-6.559c.254-.142 6.308-3.478 14.944-5.158 11.621-2.26 22.443-.438 31.297 5.274a3.501 3.501 0 0 1-3.795 5.883c-7.41-4.78-16.216-6.222-26.164-4.286-7.555 1.471-12.823 4.373-12.876 4.402a3.472 3.472 0 0 1-1.699.444z"/><path style="fill:#1b305c" d="M222.312 181.678c0 3.015-.849 5.744-2.221 7.719-1.373 1.976-3.269 3.197-5.363 3.197s-3.99-1.222-5.363-3.197c-1.373-1.976-2.221-4.705-2.221-7.719s.849-5.744 2.221-7.719c1.373-1.976 3.269-3.198 5.363-3.198s3.99 1.222 5.363 3.198c1.372 1.975 2.221 4.704 2.221 7.719z"/><path style="fill:#9b3530" d="M324.509 162.435c-.65 0-1.308-.181-1.895-.559-7.409-4.78-16.215-6.222-26.163-4.286-7.488 1.457-12.829 4.376-12.883 4.405a3.504 3.504 0 0 1-4.755-1.364 3.497 3.497 0 0 1 1.354-4.754c.254-.142 6.308-3.478 14.945-5.158 11.621-2.26 22.442-.438 31.296 5.274a3.501 3.501 0 0 1-1.899 6.442z"/><path style="fill:#1b305c" d="M310.471 181.678c0 3.015-.849 5.744-2.221 7.719-1.372 1.976-3.269 3.197-5.363 3.197-2.094 0-3.99-1.222-5.363-3.197-1.372-1.976-2.221-4.705-2.221-7.719s.849-5.744 2.221-7.719c1.373-1.976 3.269-3.198 5.363-3.198 2.094 0 3.99 1.222 5.363 3.198 1.372 1.975 2.221 4.704 2.221 7.719z"/><path style="fill:#d57249" d="M267.933 212.017h-17.206a4.571 4.571 0 0 1-3.241-1.342 4.57 4.57 0 0 1-1.342-3.241v-.832c0-1.266.513-2.411 1.342-3.241a4.57 4.57 0 0 1 3.241-1.342h17.206c1.266 0 2.411.513 3.241 1.342s1.342 1.975 1.342 3.241v.832a4.571 4.571 0 0 1-1.342 3.241 4.573 4.573 0 0 1-3.241 1.342z"/><path style="fill:#734343" d="M228.515 177.135a3.48 3.48 0 0 1-1.733-.462c-5.247-2.998-10.895-3.911-16.786-2.712-4.323.88-7.174 2.623-7.202 2.641a3.507 3.507 0 0 1-4.816-1.116 3.494 3.494 0 0 1 1.092-4.811c.156-.099 3.883-2.425 9.532-3.573 7.498-1.526 14.985-.317 21.653 3.493a3.5 3.5 0 0 1-1.74 6.54zM316.674 177.135a3.48 3.48 0 0 1-1.733-.462c-5.246-2.998-10.896-3.911-16.786-2.712-4.323.88-7.174 2.623-7.202 2.641a3.508 3.508 0 0 1-4.816-1.116 3.494 3.494 0 0 1 1.092-4.811c.156-.099 3.883-2.425 9.532-3.573 7.498-1.527 14.985-.316 21.653 3.493a3.5 3.5 0 0 1-1.74 6.54z"/><path style="fill:#fff" d="M237.479 233.827c0 5.441 2.446 10.803 6.4 14.806 3.954 4.002 9.417 6.644 15.45 6.644 6.034 0 11.496-2.642 15.45-6.644 3.954-4.002 6.4-9.365 6.4-14.806h-43.7z"/><path style="fill:#d74545" d="M281.183 233.827c0 3.02-.61 6.014-1.716 8.809a25.71 25.71 0 0 1-4.686 7.615c-1.975 2.218-4.331 4.059-6.946 5.346-2.615 1.286-5.491 2.018-8.505 2.018-6.035 0-11.498-2.929-15.453-7.368s-6.401-10.385-6.401-16.42h1.272c1.51 4.478 4.284 8.53 7.867 11.462 3.582 2.932 7.973 4.745 12.715 4.745 3.015 0 5.89-.732 8.505-2.019s4.971-3.131 6.946-5.355a25.607 25.607 0 0 0 5.13-8.833h1.272z"/><path style="fill:#d74545" d="M259.33 228.139c-5.84-.948-11.302.474-15.305 2.133s-6.545 3.555-6.545 3.555h43.7s-2.543-1.896-6.545-3.555c-4.003-1.659-9.466-3.081-15.305-2.133z"/><path style="fill:#fff" d="M393.14 472.2a253.757 253.757 0 0 1-34.17 18.239c-10.215 4.495-20.777 8.34-31.636 11.485a254.762 254.762 0 0 1-41.095 8.307c-2.571.302-5.154.568-7.749.797A261.925 261.925 0 0 1 256 512c-3.42 0-6.825-.068-10.214-.201s-6.761-.334-10.116-.599a252.343 252.343 0 0 1-14.9-1.61c-5.535-.76-11.013-1.698-16.428-2.807s-10.767-2.392-16.052-3.842c-5.62-1.535-11.163-3.257-16.62-5.16s-10.83-3.985-16.11-6.24c-6.805-2.905-13.455-6.095-19.938-9.555s-12.798-7.19-18.933-11.175l3.955-27.31 3.955-27.31.06-.42.06-.42.295-2.025.295-2.025c.155-1.06.32-2.117.499-3.17s.371-2.1.581-3.14c.205-1.04.425-2.075.656-3.105s.474-2.055.724-3.075V398.801c.11-.415.217-.825.326-1.232s.219-.812.334-1.217c.25-.95.515-1.892.793-2.829s.568-1.866.868-2.791c.11-.335.217-.665.326-.994s.219-.656.334-.986c.34-.985.692-1.965 1.055-2.941s.735-1.949 1.115-2.919c1.68-4.195 3.585-8.275 5.698-12.224a123.323 123.323 0 0 1 14.283-21.106c.22-.255.44-.515.663-.774s.447-.516.677-.766c.215-.25.435-.5.656-.749s.444-.496.664-.741a149.936 149.936 0 0 1 1.73-1.88l.766-.809c.256-.269.514-.536.774-.801a58.363 58.363 0 0 1 1.31-1.32c.095-.1.193-.197.29-.293l.29-.286c.07-.07.143-.14.215-.21s.145-.14.215-.21c.07-.07.14-.14.211-.208s.144-.136.219-.201l.211-.209c.071-.069.144-.136.219-.201a44.458 44.458 0 0 1 1.34-1.26c.175-.165.35-.328.526-.49l.534-.49.561-.5c.188-.167.379-.335.569-.5.06-.055.12-.108.179-.159s.116-.101.171-.151l.255-.224c.085-.074.17-.146.255-.216.15-.13.302-.26.456-.39l.464-.39c.04-.035.082-.07.125-.105s.085-.07.125-.105c.25-.21.5-.42.753-.629s.508-.416.768-.621a99.99 99.99 0 0 1 3.66-2.85c.15-.115.3-.227.45-.339s.3-.221.45-.331c.145-.11.292-.217.441-.324s.299-.211.449-.316c.015-.015.03-.027.045-.039s.03-.021.045-.031c.15-.11.3-.218.45-.324l.45-.316c.14-.105.285-.207.431-.307s.294-.197.439-.292c.05-.04.098-.078.145-.113s.095-.068.145-.097l1.05-.704a92.022 92.022 0 0 1 2.111-1.38c.356-.227.714-.451 1.069-.676a51.621 51.621 0 0 1 1.38-.839c.13-.08.26-.158.39-.235s.26-.155.39-.235v-.01l.055-.03.055-.03a75.996 75.996 0 0 1 2.08-1.201v-.01c.07-.045.142-.088.216-.13s.149-.085.224-.13c.235-.135.47-.265.705-.394s.47-.256.705-.386a3.656 3.656 0 0 1 .28-.14 31.657 31.657 0 0 1 1.09-.58c.02-.015.045-.027.071-.04s.054-.025.079-.04c.46-.24.923-.475 1.386-.707s.929-.462 1.394-.692l.44-.215.44-.215c.09-.04.18-.082.27-.126l.27-.134.085-.04.085-.04.805-.374c.267-.124.535-.246.805-.366l.365-.165.365-.165c.105-.045.21-.093.315-.14s.21-.095.315-.14l.14-.06.14-.06a18.929 18.929 0 0 1 .56-.24 19.137 19.137 0 0 1 .93-.4 86.67 86.67 0 0 1 2.56-1.029 12.324 12.324 0 0 1 .73-.28l.226-.09a14.59 14.59 0 0 1 .364-.14c.042-.018.085-.035.13-.05l.165-.06.165-.06.37-.135.37-.135c.005-.005.01-.008.015-.009l.015-.001a56.774 56.774 0 0 1 1.68-.599l2.505-.865 2.505-.865.001-.005a.01.01 0 0 1 .009-.005l1.13-.39 1.13-.39h.01l1.065-.37 1.065-.37.795-.275.795-.275v57.31c0 3.145.622 6.222 1.801 9.069s2.914 5.461 5.139 7.681l12.245 12.245 12.245 12.245c2.775 2.775 6.413 4.162 10.05 4.162s7.275-1.387 10.05-4.162l12.24-12.245 12.24-12.245c2.225-2.22 3.96-4.835 5.139-7.681s1.801-5.924 1.801-9.069v-55.88l.205.095.205.095 3.145 1.06 3.145 1.06a37.99 37.99 0 0 1 1.39.479c.285.1.567.203.85.305s.565.205.85.305a54.665 54.665 0 0 1 1.81.69 100.074 100.074 0 0 1 2.114.841c.314.129.626.259.936.389a88.982 88.982 0 0 1 3.87 1.699c.32.15.637.3.954.451s.631.304.946.459c.535.26 1.065.522 1.594.789s1.056.536 1.586.811c.1.05.197.103.294.155s.191.105.286.155c.07.035.143.072.215.11s.145.075.215.11l.08.05.08.05c.83.445 1.647.9 2.459 1.364s1.616.936 2.421 1.417c.28.17.56.34.84.512s.56.347.84.527c.14.085.28.17.42.257s.28.174.42.263c.33.21.658.422.984.638s.651.433.976.653c.255.16.508.325.758.494s.497.341.742.516c.325.22.65.445.974.672s.646.457.966.687l.555.406c.185.136.37.274.555.414.34.24.675.488 1.008.739s.663.506.992.761c.435.335.87.673 1.304 1.015s.866.69 1.296 1.045c.415.34.832.685 1.249 1.034s.831.701 1.241 1.057c.415.35.823.705 1.227 1.065s.807.725 1.212 1.095a93.333 93.333 0 0 1 4.7 4.51c.38.385.76.772 1.136 1.162s.749.782 1.114 1.177c.35.38.7.76 1.049 1.143a105.588 105.588 0 0 1 1.202 1.343c.056.063.114.125.169.185.315.365.632.733.949 1.103s.631.743.941 1.118c.165.195.333.392.5.592s.335.403.5.607a56.686 56.686 0 0 1 .97 1.211c.015.02.03.037.045.055s.03.035.045.055a2.448 2.448 0 0 0 .169.21c.21.265.418.532.625.802l.625.818c.275.35.543.705.808 1.062s.528.717.793 1.077c1.64 2.255 3.205 4.568 4.691 6.936a120.624 120.624 0 0 1 6.67 12.12 122.644 122.644 0 0 1 2.249 4.974c.145.34.29.68.433 1.02s.283.68.418 1.02c.09.215.175.427.26.64s.17.425.26.64c.11.28.22.562.329.847s.216.572.321.862a150.357 150.357 0 0 1 .99 2.73c.115.33.23.66.342.991s.223.664.328.999l.299.906c.099.303.196.609.291.914a87.74 87.74 0 0 1 1.23 4.21 57.386 57.386 0 0 1 .54 2.041c.085.305.163.61.239.915s.151.61.231.915c.02.095.043.19.065.286s.045.194.065.294a160.803 160.803 0 0 1 .83 3.77l.164.819c.054.272.106.541.156.811.055.315.113.625.169.934s.111.616.161.926c.055.305.11.61.161.915s.099.61.139.915c.03.165.055.33.08.495s.05.33.08.495l.15 1.056.15 1.064c.015.08.028.163.039.246l.031.254.33 2.575.33 2.575.06.485.06.485 2.845 22.13 2.845 22.13.53 4.145.528 4.138z"/><path style="fill:#c4c4c4" d="M215.55 310.12v18.55c-3.97 2.77-7.758 5.785-11.345 9.019s-6.975 6.686-10.145 10.331c-.23.25-.455.507-.678.766s-.443.519-.662.774c-.22.265-.44.527-.657.791s-.433.529-.643.799c-.79.97-1.567 1.953-2.329 2.946a109.45 109.45 0 0 0-2.978 4.07 80.57 80.57 0 0 0-.732 1.064c-2.515 3.67-4.835 7.487-6.946 11.436s-4.014 8.029-5.694 12.224c-.38.97-.753 1.942-1.115 2.919a139.017 139.017 0 0 0-1.393 3.927c-.11.328-.218.659-.323.994-.3.925-.59 1.855-.867 2.791s-.543 1.879-.793 2.829c-.12.405-.23.81-.337 1.217s-.212.817-.322 1.232V398.809c-.255 1.02-.498 2.045-.729 3.075s-.451 2.065-.661 3.105c-.205 1.04-.395 2.087-.572 3.14s-.343 2.11-.497 3.17l-.93 6.415-.93 6.415-3.855 26.605-3.855 26.605c1.03.975 2.07 1.94 3.119 2.895s2.106 1.9 3.171 2.835l1.366 1.184c.456.394.914.786 1.374 1.177l.02.02.02.02a318.229 318.229 0 0 0 2.7 2.25c.01.005.02.013.031.021l.039.029c.47.385.94.767 1.411 1.147s.944.757 1.419 1.132c.495.4.995.795 1.497 1.186s1.008.779 1.513 1.164a605.134 605.134 0 0 0 2.51 1.9c.53.39 1.058.778 1.588 1.164a195.259 195.259 0 0 0 3.053 2.184 297.337 297.337 0 0 0 2.954 2.039c.497.339.995.674 1.495 1.004.365.245.727.485 1.09.724l1.09.716.38.241a36.43 36.43 0 0 0 .635.413c.085.054.17.106.255.156-5.62-1.535-11.163-3.257-16.62-5.16s-10.83-3.985-16.11-6.24c-6.805-2.905-13.455-6.095-19.938-9.555s-12.798-7.19-18.933-11.175l3.955-27.31 3.955-27.31.06-.42.06-.42.295-2.025.295-2.025c.155-1.06.32-2.117.499-3.17s.371-2.1.581-3.14c.205-1.04.425-2.075.656-3.105s.474-2.055.724-3.075V398.8c.11-.415.217-.825.326-1.232s.219-.812.334-1.217c.25-.95.515-1.892.793-2.829s.568-1.866.868-2.791c.11-.335.217-.665.326-.994s.219-.656.334-.986c.34-.985.692-1.965 1.055-2.941s.735-1.949 1.115-2.919c1.68-4.195 3.585-8.275 5.698-12.224a123.323 123.323 0 0 1 14.283-21.106c.22-.255.44-.515.663-.774s.447-.516.677-.766c.215-.25.435-.5.656-.749s.444-.496.664-.741c.205-.23.412-.457.621-.684s.419-.451.629-.676c.075-.085.152-.172.232-.26s.163-.175.248-.26c.055-.06.11-.118.165-.175s.11-.115.165-.175c.16-.17.32-.337.48-.504s.32-.331.48-.496c.04-.045.082-.087.125-.13s.085-.085.125-.13c.045-.05.092-.098.14-.145s.095-.095.14-.145a5.421 5.421 0 0 1 .37-.37l.33-.33.33-.33c.095-.1.193-.197.29-.293l.29-.286c.07-.07.143-.14.215-.21s.145-.14.215-.21c.07-.07.14-.14.211-.208s.144-.136.219-.201l.211-.209c.071-.069.144-.136.219-.201a22.118 22.118 0 0 1 .89-.839l.225-.21.225-.21.42-.389c.14-.129.28-.256.42-.381.035-.035.073-.07.11-.105s.075-.07.11-.105l.181-.165c.061-.055.124-.11.189-.165.125-.11.25-.223.376-.335a20.926 20.926 0 0 1 .549-.477l.165-.148.01-.01.01-.01c.055-.05.112-.1.171-.15l.179-.15.015-.014a.024.024 0 0 1 .015-.006c.19-.17.38-.335.571-.497s.384-.323.579-.483c.025-.025.05-.047.075-.069s.05-.041.075-.061l.16-.134c.053-.044.105-.086.16-.126.11-.1.223-.195.335-.288s.225-.182.335-.272c.085-.075.172-.147.261-.219s.179-.141.269-.211a35.028 35.028 0 0 1 1.28-1.021c.06-.055.122-.105.185-.154s.125-.096.185-.146l.195-.15.195-.15c.17-.135.342-.27.516-.403s.349-.263.524-.388c.095-.075.193-.15.29-.224s.195-.146.29-.216h.01c.12-.095.24-.187.36-.279s.24-.181.36-.271.242-.18.366-.27l.374-.27.205-.149c.067-.049.135-.096.205-.141l.015-.014a.024.024 0 0 1 .015-.006l.391-.285a62.038 62.038 0 0 1 1.015-.715l.624-.43h.01l1.045-.704a105.262 105.262 0 0 1 1.575-1.04l.53-.336.535-.344a26.7 26.7 0 0 1 .535-.336 9.818 9.818 0 0 1 .6-.359 66.572 66.572 0 0 1 1.56-.96l.055-.03.055-.03a75.996 75.996 0 0 1 2.08-1.201v-.01c.07-.045.142-.088.216-.13s.149-.085.224-.13c.23-.13.46-.257.69-.384s.46-.251.69-.376c.005-.005.01-.008.015-.01s.01-.005.015-.01a3.656 3.656 0 0 1 .28-.14l.11-.06.11-.06c.135-.075.272-.147.411-.22s.279-.145.419-.22c.005-.005.013-.007.02-.01s.015-.005.02-.01c.02-.015.045-.027.071-.04s.054-.025.079-.04l.691-.359a150.448 150.448 0 0 1 1.394-.696l.695-.345.44-.215.44-.215c.09-.04.18-.082.27-.126l.27-.134.085-.04.085-.04.805-.374c.267-.124.535-.246.805-.366l.365-.165.365-.165c.105-.045.21-.093.315-.14s.21-.095.315-.14l.14-.06.14-.06c.03-.01.058-.023.085-.036l.085-.044c.065-.025.13-.053.195-.08s.13-.055.195-.08a19.137 19.137 0 0 1 .93-.4 86.67 86.67 0 0 1 2.56-1.029 12.324 12.324 0 0 1 .73-.28l.226-.09a14.59 14.59 0 0 1 .364-.14c.042-.018.085-.035.13-.05l.165-.06.165-.06.37-.135.37-.135c.005-.005.01-.008.015-.009l.015-.001a56.774 56.774 0 0 1 1.68-.599l2.505-.865 2.505-.865.001-.005a.01.01 0 0 1 .009-.005l1.135-.39 1.135-.39 1.065-.37 1.065-.37.795-.275.792-.279z"/><path style="fill:#1b305c" d="M358.97 351.28v139.16c-10.215 4.495-20.777 8.34-31.636 11.485a254.762 254.762 0 0 1-41.095 8.307c-2.571.302-5.154.568-7.749.797a260.73 260.73 0 0 1-42.82.171 252.343 252.343 0 0 1-14.9-1.61c-5.535-.76-11.013-1.698-16.428-2.807s-10.767-2.392-16.052-3.842c-5.62-1.535-11.163-3.257-16.62-5.16s-10.83-3.985-16.11-6.24V346.53a149.936 149.936 0 0 1 1.73-1.88l.766-.809c.256-.269.514-.536.774-.801a58.363 58.363 0 0 1 1.31-1.32c.095-.1.193-.197.29-.293l.29-.286c.07-.07.143-.14.215-.21s.145-.14.215-.21c.07-.07.14-.14.211-.208s.144-.136.219-.201l.211-.209c.071-.069.144-.136.219-.201a44.458 44.458 0 0 1 1.34-1.26c.175-.165.35-.328.526-.49l.534-.49.561-.5c.188-.167.379-.335.569-.5.06-.055.12-.108.179-.159s.116-.101.171-.151l.255-.224c.085-.074.17-.146.255-.216.15-.13.302-.26.456-.39l.464-.39c.04-.035.082-.07.125-.105s.085-.07.125-.105c.25-.21.5-.42.753-.629s.508-.416.768-.621a99.99 99.99 0 0 1 3.66-2.85c.15-.115.3-.227.45-.339s.3-.221.45-.331c.145-.11.292-.217.441-.324s.299-.211.449-.316c.015-.015.03-.027.045-.039s.03-.021.045-.031c.15-.11.3-.218.45-.324l.45-.316c.14-.105.285-.207.431-.307s.294-.197.439-.292c.05-.04.098-.078.145-.113s.095-.068.145-.097l1.05-.704a92.022 92.022 0 0 1 2.111-1.38c.356-.227.714-.451 1.069-.676a51.621 51.621 0 0 1 1.38-.839c.13-.08.26-.158.39-.235s.26-.155.39-.235v-.01l.055-.03.055-.03a75.996 75.996 0 0 1 2.08-1.201v-.01c.07-.045.142-.088.216-.13s.149-.085.224-.13c.235-.135.47-.265.705-.394s.47-.256.705-.386a3.656 3.656 0 0 1 .28-.14 31.657 31.657 0 0 1 1.09-.58c.02-.015.045-.027.071-.04s.054-.025.079-.04c.46-.24.923-.475 1.386-.707s.929-.462 1.394-.692v113.35c0 7.9 3.203 15.052 8.38 20.23s12.33 8.38 20.23 8.38H294.5c7.9 0 15.052-3.203 20.23-8.38s8.38-12.33 8.38-20.23v-111.14l.08.05.08.05c.83.445 1.647.9 2.459 1.364s1.616.936 2.421 1.417c.28.17.56.34.84.512s.56.347.84.527c.14.085.28.17.42.257s.28.174.42.263c.33.21.658.422.984.638s.651.433.976.653c.255.16.508.325.758.494s.497.341.742.516c.325.22.65.445.974.672s.646.457.966.687l.555.406c.185.136.37.274.555.414.34.24.675.488 1.008.739s.663.506.992.761c.435.335.87.673 1.304 1.015s.866.69 1.296 1.045c.415.34.832.685 1.249 1.034s.831.701 1.241 1.057c.415.35.823.705 1.227 1.065s.807.725 1.212 1.095a93.333 93.333 0 0 1 4.7 4.51c.38.385.76.772 1.136 1.162s.749.782 1.114 1.177c.35.38.7.76 1.049 1.143a105.588 105.588 0 0 1 1.202 1.343c.056.063.114.125.169.185.315.365.632.733.949 1.103s.631.743.941 1.118c.165.195.333.392.5.592s.336.397.501.602z"/><path style="fill:#192b49" d="m165.129 411.302-4.783 33.018-4.783 33.018v-130.81a157.427 157.427 0 0 1 1.727-1.882c.253-.269.509-.538.767-.805s.516-.534.774-.798c.212-.222.429-.445.649-.666.22-.221.442-.441.664-.658a15.693 15.693 0 0 1 .579-.579c.212-.212.424-.421.637-.628.213-.207.428-.411.645-.613l.668-.635c.223-.211.449-.42.676-.627l.527-.49c.175-.162.352-.322.527-.482l.565-.502c.19-.168.381-.336.573-.502.057-.057.116-.109.176-.159.059-.05.119-.1.176-.151a51.6 51.6 0 0 1 1.675-1.427c.248-.212.499-.424.752-.633s.509-.416.768-.618a100.216 100.216 0 0 1 3.661-2.855c.243-.186.486-.367.73-.547.244-.18.49-.358.738-.539.409-.295.817-.587 1.228-.876.411-.29.825-.577 1.244-.861.346-.238.696-.473 1.046-.707.35-.234.702-.467 1.054-.699a160.38 160.38 0 0 1 2.13-1.355 99.429 99.429 0 0 1 4.343-2.586v-.01l.219-.125.226-.133a84.035 84.035 0 0 1 2.782-1.499c.021-.016.044-.028.068-.041l.076-.041a128.764 128.764 0 0 1 2.782-1.396v31.752a117.552 117.552 0 0 0-3.109 3.973 113.12 113.12 0 0 0-2.931 4.105c-2.513 3.672-4.833 7.49-6.944 11.44s-4.014 8.03-5.695 12.223a142.287 142.287 0 0 0-2.507 6.843 110.045 110.045 0 0 0-1.193 3.789 96.57 96.57 0 0 0-.789 2.823c-.119.409-.23.814-.339 1.222-.109.407-.215.816-.323 1.229V398.812a133.842 133.842 0 0 0-1.386 6.185c-.207 1.039-.398 2.087-.577 3.139s-.338 2.106-.493 3.166z"/><path style="fill:#fff" d="M293.92 509.21c-2.55.38-5.11.72-7.681 1.022s-5.154.568-7.749.797l-10.615-4.89-10.615-4.89-10.795 4.975-10.795 4.976a252.343 252.343 0 0 1-14.9-1.61c-.84-1.89-.845-3.947-.167-5.749s2.037-3.346 3.927-4.211l7.305-3.365 7.305-3.365-7.305-3.365-7.305-3.365c-1.905-.875-3.273-2.44-3.945-4.261s-.65-3.899.225-5.799c.875-1.905 2.44-3.272 4.261-3.945s3.899-.65 5.799.225l13.195 6.08 13.195 6.08 13.2-6.08 13.2-6.08c1.9-.875 3.978-.898 5.799-.225s3.386 2.04 4.261 3.945c.875 1.9.898 3.978.225 5.799s-2.04 3.386-3.945 4.261l-7.305 3.365-7.305 3.365 7.305 3.365L290 499.63a7.565 7.565 0 0 1 3.858 4.036c.7 1.724.767 3.699.062 5.544z"/><path style="fill:#d57249" d="M350.747 192.595a8.2 8.2 0 0 0 5.815-2.408c1.488-1.488 2.408-3.544 2.408-5.814s-.92-4.326-2.408-5.815a8.198 8.198 0 0 0-5.815-2.408v16.445z"/></svg>