<svg xmlns="http://www.w3.org/2000/svg" viewBox="0 0 512 512"
    style="enable-background:new 0 0 512 512" xml:space="preserve"><style>.st16{fill:#fff}.st20{fill:#d5b3a7}.st21{fill:#c09a8f}.st23{fill:#1b305c}.st26{fill:#b62a2a}.st27{fill:#325859}.st36{fill:#4c3328}.st42{fill:#233e76}.st166{fill:#2f538f}.st167{fill:#2b4b78}</style><g id="BULINE"><circle id="XMLID_1703_" cx="256" cy="256" r="256" style="fill:#ae6b5d"/></g><g id="Icons"><g id="XMLID_4041_"><path id="XMLID_2419_" d="M469.9 135c0 27.7-5.3 54.2-14.9 78.5-9.5 23.9-23.1 45.6-40 64.3-14.6 16.2-31.7 30.1-50.6 41.2-3.9 2.3-8 4.5-12.1 6.5-7 3.5-14.2 6.7-21.7 9.4-.7.2-1.3.5-2 .7-5.2 1.9-10.6 3.5-16 5-5.1 1.4-10.3 2.6-15.5 3.6-13 2.5-26.5 3.8-40.3 3.8-12.9 0-25.5-1.2-37.8-3.4-6.1-1.1-12.1-2.4-17.9-4-3.8-1-7.6-2.2-11.4-3.4-1.4-.5-2.8-.9-4.1-1.4-2.7-.9-5.3-1.9-7.9-3-5.1-2.1-10.2-4.3-15.1-6.8-4.5-2.2-8.9-4.6-13.2-7.1-.9-.5-1.8-1.1-2.7-1.6-16.5-10-31.5-22.1-44.6-36l-.8-.8c-16.8-18-30.6-38.8-40.4-61.8-11-25.7-17.1-54-17.1-83.8 0-8.1.5-16.2 1.4-24.1C91.2 43.9 168.5 0 256 0c88.7 0 166.9 45.1 212.8 113.7.7 7 1.1 14.1 1.1 21.3z" style="fill:#e0ad70"/><path id="XMLID_2423_" class="st36" d="M512 256c0 93-49.6 174.4-123.7 219.2-17.9 10.9-37.3 19.6-57.8 25.8-.2.1-.4.1-.6.2-5.7 1.7-11.5 3.2-17.4 4.6-5.1 1.2-10.3 2.2-15.5 3-13.4 2.2-27.1 3.3-41.1 3.3-12.6 0-24.9-.9-37-2.7-6.1-.9-12-2-17.9-3.2-4.7-1-9.4-2.2-14-3.5-.5-.1-1-.3-1.5-.4-9.3-2.7-18.4-5.8-27.2-9.5-10.2-4.2-20.1-9.1-29.6-14.5C51.8 434 0 351.1 0 256c0-10.2.6-20.3 1.8-30.2l17.6-11.2c4.7-3 10.6-3 15.4-.2l9.8 5.9c5.2 3.1 11.8 2.5 16.3-1.5.3-.2.6-.5.8-.8l25.1-26.4c3.2-3.3 8.1-4.1 12.2-2l31.3 16.4 1.2.6 7.8 4.1.6.3 1.9 1 42.7 5.8 10.1 1.4 19.4 2.6 97 13.2 44 1.7 17.1.7 12.5-12.9 32.8-33.8c4.3-4.4 11.4-4.1 15.3.6l14.2 17.3c2.1 2.6 5 4.2 8.1 4.8 4.1.8 8.5-.3 11.8-3.3l.7-.6c5-4.5 12.5-5 18-1.1l24.7 17c1.2 10.1 1.8 20.3 1.8 30.6z"/><path id="XMLID_4003_" d="M414.3 277.9c-8.2-16.3-20.9-30.1-36.4-39.6 2.7-4.1 4.8-8.8 6-13.7.9-3.4 1.3-7.1 1.3-10.8v-65.5c0-14.8-2.7-29-7.6-42-9.5-25.3-27.3-46.6-50.1-60.4-2.8-1.7-5.7-3.3-8.6-4.8-1.8-.9-3.5-1.7-5.3-2.5-14.6-6.6-31-10.3-48.2-10.3h-14.7c-40.9 0-77 20.5-98.7 51.8-10 14.4-16.9 31.2-19.8 49.3-1 6.2-1.5 12.5-1.5 18.9v65.5c0 9.3 2.8 17.9 7.7 25.1-16.2 10.2-29.1 25-37.1 42.6-5.6 12.4-8.8 26.2-8.8 40.7v94c12.5 0 24.5-2.3 35.5-6.6.2-.1.4-.2.6-.2 10.7-4.2 20.4-10.3 28.9-17.7 1.6-1.4 3.1-2.8 4.5-4.2 9.1-9.1 16.5-20 21.5-32.2.4-1.1.8-2.1 1.2-3.2 1.7-4.7 3.1-9.5 4.1-14.5.7-3.6 1.3-7.2 1.6-11 .1-.6.1-1.2.1-1.8.2-2.3.3-4.7.3-7v-32.2c.1.1.2.1.3.2.5.4 1.1.8 1.6 1.2.2.2.4.3.7.5.4.3.9.6 1.3 1 .2.2.5.3.7.5.4.3.8.6 1.3.9.3.2.5.3.8.5.4.3.8.6 1.3.8.3.2.5.3.8.5.4.3.8.5 1.3.8.3.2.5.3.8.5.4.3.9.5 1.3.8.3.2.5.3.8.5.4.3.9.5 1.3.8.3.1.5.3.8.4.5.3.9.5 1.4.7.3.1.5.3.8.4.5.2 1 .5 1.5.7.2.1.5.2.7.4.5.2 1 .5 1.5.7.2.1.4.2.7.3.6.3 1.1.5 1.7.7.2.1.4.2.5.2.7.3 1.3.6 2 .8.1 0 .2.1.3.1 2.3.9 4.7 1.8 7.1 2.5.1 0 .1 0 .2.1.7.2 1.5.4 2.2.6.2 0 .3.1.5.1.6.2 1.3.4 1.9.5.2.1.4.1.6.2.6.2 1.2.3 1.8.5.2.1.5.1.7.2.6.1 1.2.3 1.8.4.2 0 .5.1.7.1l1.8.3c.2 0 .5.1.7.1l1.8.3c.2 0 .5.1.7.1l1.8.3c.2 0 .5.1.7.1.6.1 1.2.1 1.9.2.2 0 .4.1.7.1.7.1 1.3.1 2 .2h.6c.7.1 1.5.1 2.2.1h.3c1.7.1 3.5.1 5.3.1h1c1.4 0 2.7 0 4.1-.1h.5c1.4-.1 2.7-.2 4.1-.3.2 0 .4 0 .6-.1 1.3-.1 2.7-.3 4-.4.2 0 .4-.1.6-.1 1.3-.2 2.7-.4 4-.6.1 0 .2 0 .3-.1 19.8-3.6 37.6-12.7 51.8-25.8v37.6c0 2.4.1 4.7.3 7 .2 3.8.7 7.5 1.4 11.1.5 2.9 1.2 5.7 2 8.5 1 3.7 2.3 7.3 3.7 10.8 9.8 23.7 28.5 42.8 52.1 53 .6.3 1.3.6 2 .8 11.4 4.7 24 7.2 37.1 7.2v-94c.2-15.9-3.6-30.9-10.3-44.2zM375 207.5c-.1.2-.2.4-.3.5.1-.2.2-.3.3-.5zM327.4 279c-.3.2-.5.5-.7.7.8-.8 1.7-1.6 2.5-2.4-.7.6-1.2 1.1-1.8 1.7z" style="fill:#e39123"/><path id="XMLID_2192_" d="M264.8 28.3h-14.7c-40.9 0-77 20.5-98.7 51.8-10 14.4-16.9 31.2-19.8 49.3-1 6.2-1.5 12.5-1.5 18.9v65.5c0 9.3 2.9 17.9 7.7 25.1-15.9 10.1-28.7 24.6-36.7 41.8-5.9 12.6-9.1 26.7-9.1 41.5v94h1.1c12.6-.1 24.5-2.6 35.5-7.1 6.3-2.5 12.2-5.7 17.8-9.4v-77.5c0-1.6 0-3.1.1-4.7 1-21.6 9-41.5 21.8-57.2-1.3-2.1-2.6-4.2-3.8-6.4 0-.1-.1-.1-.1-.2-.3-.6-.7-1.2-1-1.8 0-.1-.1-.2-.1-.3l-.9-1.8c-.1-.1-.1-.2-.2-.3l-.9-1.8c0-.1-.1-.2-.2-.3-.3-.6-.6-1.2-.8-1.9 0-.1-.1-.2-.1-.3-.3-.6-.5-1.3-.8-1.9 0-.1-.1-.2-.1-.2-.3-.7-.5-1.3-.8-2 0-.1 0-.1-.1-.1-3.1-8.1-5.2-16.6-6.2-25.5h-2.6c-4.2 0-8-1.8-10.6-4.7-2.3-2.5-3.7-5.9-3.7-9.7v-13.7c0-7.9 6.4-14.3 14.3-14.3h1.9v-16.2c0-1.9.1-3.8.2-5.7.1 0 .2.1.3.1.3.1.5.2.8.4 8.2 3.7 18 5.8 28.8 6H184.4v-9.3c0-6.4.5-12.7 1.5-18.9 2.9-18.1 9.8-34.8 19.8-49.3C224 54 252.1 35.4 284.7 30c-6.5-1.1-13.1-1.7-19.9-1.7z" style="fill:#c57c21"/><path id="XMLID_2191_" class="st42" d="M364.3 355h-215v-48.9c0-15 12.2-27.2 27.2-27.2h160.6c15 0 27.2 12.2 27.2 27.2V355z"/><path id="XMLID_2189_" class="st20" d="M266.1 343.6h-14.7c-11.7 0-21.3-9.5-21.3-21.3v-35c0-11.7 9.5-21.3 21.3-21.3h14.7c11.7 0 21.3 9.5 21.3 21.3v35c-.1 11.8-9.6 21.3-21.3 21.3z"/><path id="XMLID_2188_" class="st21" d="M268.7 343.4c-1 .1-2 .2-3.1.2H251c-11.7 0-21.3-9.5-21.3-21.3v-35c0-11.7 9.5-21.3 21.3-21.3h14.7c1 0 2.1.1 3.1.2-10.3 1.5-18.2 10.3-18.2 21v35c-.1 10.8 7.8 19.7 18.1 21.2z"/><path id="XMLID_4042_" d="M312.2 59.7c8.8 4.4 21.2 13.1 28.3 29.5 1.6 3.6-2.2 7.3-5.7 5.6-2.3-1.1-4.7 1.3-3.7 3.6 1.5 3.4 3.3 7.7 4.9 12.1 1.6 4.5-4.2 7.8-7.3 4.2-8.2-9.6-20.4-20.8-33.1-22.4-1.4-.2-2.2-1.8-1.4-3 1.8-2.9 5.4-7.3 11.1-8.9 5.1-1.4 8.4-6.5 7.3-11.6-.4-2-1.3-4.1-2.8-6.3-1.3-1.5.5-3.7 2.4-2.8z" style="fill:#eda34a"/><path id="XMLID_2319_" d="M388.3 370.1v105.1c-17.9 10.9-37.3 19.6-57.8 25.8-.2.1-.4.1-.6.2-5.7 1.7-11.5 3.2-17.4 4.6-5.1 1.2-10.3 2.2-15.5 3-13.4 2.2-27.1 3.3-41.1 3.3-12.6 0-24.9-.9-37-2.7-6.1-.9-12-2-17.9-3.2-4.7-1-9.4-2.2-14-3.5-.5-.1-1-.3-1.5-.4-9.3-2.7-18.4-5.8-27.2-9.5-10.2-4.2-20.1-9.1-29.6-14.5V370.1c0-12.6 5.1-24 13.3-32.2 1.3-1.3 2.6-2.5 4.1-3.6l.3-.3c.5-.4.9-.7 1.4-1.1.5-.3.9-.7 1.4-1 .4-.3.9-.6 1.3-.8.9-.6 1.9-1.1 2.9-1.6.6-.3 1.3-.7 2-1 .7-.3 1.3-.6 2-.9 1.6-.6 3.2-1.2 4.9-1.6.1 0 .3-.1.4-.1 1.1-.3 2.2-.5 3.3-.7.7-.1 1.5-.2 2.3-.3.8-.1 1.5-.2 2.3-.2 1.1-.1 2.3-.1 3.5-.1h168.5c3.2 0 6.4.3 9.4 1 4.3.9 8.3 2.4 12.1 4.4 14.5 7.6 24.2 22.8 24.2 40.1z" style="fill:#da4545"/><path id="XMLID_2222_" class="st27" d="M187.1 418.9v83.7c-.5-.1-1-.3-1.5-.4-9.3-2.7-18.4-5.8-27.2-9.5-10.2-4.2-20.1-9.1-29.6-14.5v-69h48.6c3.4 0 6.5 1.8 8.2 4.5.9 1.5 1.5 3.3 1.5 5.2z"/><path id="XMLID_2225_" class="st26" d="M203.8 324.6c-.9 0-1.9 0-2.8.1-3.4.2-6.6.8-9.8 1.7-2 .6-3.9 1.3-5.7 2.1-2.8 1.2-5.5 2.7-7.9 4.5-7.6 5.3-13.6 13-16.7 22-1.7 4.7-2.6 9.8-2.6 15.1v122.6c-10.2-4.2-20.1-9.1-29.6-14.5V370.1c0-12.6 5.1-24 13.3-32.2 1.3-1.3 2.6-2.5 4.1-3.6l.3-.3c.5-.4.9-.7 1.4-1.1.5-.3.9-.7 1.4-1 .4-.3.9-.6 1.3-.9.9-.6 1.9-1.1 2.9-1.6.6-.3 1.3-.7 2-1 .7-.3 1.3-.6 2-.9 1.6-.6 3.2-1.2 4.9-1.6.1 0 .3-.1.4-.1 1.1-.3 2.2-.5 3.3-.7.7-.1 1.5-.2 2.3-.3.8-.1 1.5-.2 2.3-.2 1.1-.1 2.3-.1 3.5-.1h29.7z"/><path id="XMLID_1839_" d="M158.3 409.2v83.5c-10.2-4.2-20.1-9.1-29.6-14.5v-69h29.6z" style="fill:#284646"/><path id="XMLID_1837_" class="st27" d="M388.3 408v67.2c-17.9 10.9-37.3 19.6-57.8 25.8-.2.1-.4.1-.6.2v-83.5c0-1.1.2-2.2.6-3.3 1.3-3.8 4.9-6.4 9.1-6.4h48.7z"/><path id="XMLID_2179_" class="st20" d="M362.7 173h-2.4v-9c-14.6 3.2-33.7-.4-51.6-10.9-18.5-10.8-31.2-26.4-35.1-41-9.3 15.8-27.9 30.5-51.6 38.8-11 3.9-21.9 6-32.2 6.5-14 .7-26.8-1.6-36.9-6.4-.1 1.9-.2 3.8-.2 5.7V173h-2c-7.9 0-14.3 6.4-14.3 14.3V201c0 7.9 6.4 14.3 14.3 14.3h2.6c1 8.9 3.1 17.4 6.2 25.4 0 0 0 .1.1.1.3.7.5 1.3.8 2 0 .1.1.2.1.2.3.6.5 1.3.8 1.9 0 .1.1.2.1.3.3.6.6 1.2.8 1.8 0 .1.1.2.1.3l.9 1.8c.1.1.1.2.2.3l.9 1.8c0 .1.1.2.1.3.3.6.7 1.2 1 1.8 0 .1.1.1.1.2 2.2 4 4.6 7.8 7.3 11.4.1.1.1.2.2.3.4.5.7 1 1.1 1.4.1.2.2.3.4.5.3.4.7.9 1 1.3.2.2.3.4.5.6.3.4.7.8 1 1.2.2.2.4.4.6.7.3.4.6.8 1 1.1.2.2.4.5.6.7.3.4.6.7 1 1.1.2.2.4.5.7.7.3.3.6.7 1 1l.7.7 1 1c.3.2.5.5.8.7.3.3.6.6 1 .9l.8.8.9.9c.3.3.6.5.9.8.3.3.6.5.9.8.3.3.7.6 1 .8.3.2.6.5.8.7.3.3.7.6 1 .8.2.1.3.3.5.4.2.2.4.3.6.5.5.4 1.1.8 1.6 1.2.2.2.4.3.7.5.4.3.9.6 1.3 1 .2.2.5.3.7.5.4.3.8.6 1.3.9.3.2.5.3.8.5.4.3.8.6 1.3.8.3.2.5.3.8.5.4.3.8.5 1.3.8.3.2.5.3.8.5.4.3.9.5 1.3.8.3.2.5.3.8.5.4.3.9.5 1.3.7.3.1.5.3.8.4.5.2.9.5 1.4.7.3.1.5.3.8.4.5.2 1 .5 1.5.7.2.1.5.2.7.4.5.2 1 .5 1.5.7.2.1.4.2.7.3.6.3 1.1.5 1.7.7.2.1.4.2.5.2.7.3 1.3.6 2 .8.1 0 .2.1.3.1 2.3.9 4.7 1.8 7.1 2.5.1 0 .1 0 .2.1.7.2 1.4.4 2.2.6.2 0 .3.1.5.1.6.2 1.3.4 1.9.5.2.1.4.1.6.2.6.2 1.2.3 1.8.4.2.1.5.1.7.2.6.1 1.2.3 1.8.4.2 0 .5.1.7.1l1.8.3c.2 0 .5.1.7.1l1.8.3c.2 0 .5.1.7.1l1.8.3c.2 0 .5.1.7.1.6.1 1.3.1 1.9.2.2 0 .4 0 .7.1.7.1 1.3.1 2 .2h.6c.7.1 1.5.1 2.2.1h.3c1.7.1 3.5.1 5.3.1h.2c1.4 0 2.7 0 4.1-.1h.5c1.4-.1 2.7-.2 4.1-.3.2 0 .4 0 .6-.1 1.3-.1 2.7-.3 4-.4.2 0 .4-.1.6-.1 1.3-.2 2.7-.4 4-.6.1 0 .2 0 .3-.1 19.8-3.6 37.6-12.7 51.8-25.8 17.9-16.5 29.9-39.2 32.8-64.6h3c7.9 0 14.3-6.4 14.3-14.3v-13.7c.1-7.4-6.3-13.8-14.3-13.8z"/><path id="XMLID_2177_" class="st21" d="M279.3 304.7c-1.7.4-3.4.7-5.1 1-.1 0-.2 0-.3.1-1.3.2-2.6.4-4 .6-.2 0-.4.1-.6.1-1.3.2-2.7.3-4 .5-.2 0-.4 0-.6.1-1.4.1-2.7.2-4.1.3h-.5c-1.4.1-2.7.1-4.1.1h-.2c-1.8 0-3.5 0-5.3-.1h-.3c-.7 0-1.5-.1-2.2-.1h-.6c-.7-.1-1.3-.1-2-.2-.2 0-.4 0-.7-.1-.6-.1-1.2-.1-1.9-.2-.2 0-.5-.1-.7-.1l-1.8-.3c-.2 0-.5-.1-.7-.1l-1.8-.3c-.2 0-.5-.1-.7-.1l-1.8-.3c-.2 0-.5-.1-.7-.1-.6-.1-1.2-.3-1.8-.4-.2 0-.5-.1-.7-.2-.6-.1-1.2-.3-1.8-.5-.2 0-.4-.1-.6-.2-.6-.2-1.3-.3-1.9-.5-.2 0-.3-.1-.5-.1-.7-.2-1.5-.4-2.2-.6-.1 0-.1 0-.2-.1-2.4-.8-4.8-1.6-7.1-2.5-.1 0-.2-.1-.3-.1-.7-.3-1.3-.5-2-.8-.2-.1-.4-.2-.5-.2-.6-.2-1.1-.5-1.7-.7-.2-.1-.4-.2-.7-.3-.5-.2-1-.5-1.5-.7-.2-.1-.5-.2-.7-.4-.5-.2-1-.5-1.5-.7-.3-.1-.5-.3-.8-.4-.5-.2-.9-.5-1.4-.7-.3-.1-.5-.3-.8-.4-.5-.3-.9-.5-1.3-.8-.3-.2-.5-.3-.8-.5-.4-.3-.9-.5-1.3-.8-.3-.2-.5-.3-.8-.5-.4-.3-.9-.5-1.3-.8-.3-.2-.5-.3-.8-.5-.4-.3-.8-.5-1.3-.8-.3-.2-.5-.3-.8-.5-.4-.3-.8-.6-1.3-.9-.2-.2-.5-.3-.7-.5-.4-.3-.9-.6-1.3-1-.2-.2-.4-.3-.7-.5-.5-.4-1.1-.8-1.6-1.2-.2-.2-.4-.3-.6-.5-.2-.1-.3-.3-.5-.4-.3-.3-.7-.5-1-.8-.3-.2-.6-.5-.8-.7-.3-.3-.7-.6-1-.8-.3-.3-.6-.5-.9-.8-.3-.3-.6-.5-.9-.8l-.9-.9c-.3-.2-.5-.5-.8-.8l-.9-.9c-.3-.2-.5-.5-.8-.7l-1-1-.7-.7c-.3-.3-.6-.7-1-1-.2-.2-.4-.5-.7-.7-.3-.4-.6-.7-1-1.1-.2-.2-.4-.5-.6-.7-.3-.4-.7-.8-1-1.1l-.6-.6c-.3-.4-.7-.8-1-1.2-.2-.2-.3-.4-.5-.6-.3-.4-.7-.9-1-1.3-.1-.2-.3-.3-.4-.5-.4-.5-.7-.9-1.1-1.4-.1-.1-.1-.2-.2-.3-2.7-3.6-5.1-7.4-7.3-11.4 0-.1-.1-.1-.1-.2-.3-.6-.7-1.2-1-1.8 0-.1-.1-.2-.1-.3l-.9-1.8c-.1-.1-.1-.2-.2-.3l-.9-1.8c0-.1-.1-.2-.2-.3-.3-.6-.6-1.2-.8-1.8 0-.1-.1-.2-.1-.3-.3-.6-.5-1.3-.8-1.9 0-.1-.1-.2-.1-.2-.3-.7-.5-1.3-.8-2 0 0 0-.1-.1-.1-3.1-8-5.2-16.6-6.2-25.4H150c-7.9 0-14.3-6.4-14.3-14.3v-13.7c0-7.9 6.4-14.3 14.3-14.3h2v-16.2c0-1.9.1-3.8.2-5.7 10.1 4.9 22.9 7.1 36.9 6.4 1.3-.1 2.6-.2 4-.3-1.8 9-2.8 18.3-2.8 27.9 0 60.8 38.8 111.5 89 119.1z"/><circle id="XMLID_2175_" class="st23" cx="207.5" cy="187.2" r="14.3"/><circle id="XMLID_2174_" class="st16" cx="211.2" cy="182.5" r="6.3"/><circle id="XMLID_2173_" class="st23" cx="307.4" cy="187.2" r="14.3"/><circle id="XMLID_2172_" class="st16" cx="311" cy="182.5" r="6.3"/><path id="XMLID_2171_" class="st21" d="M264.6 219.9h-12.8c-4.2 0-7.7-3.4-7.7-7.7 0-4.2 3.4-7.7 7.7-7.7h12.8c4.2 0 7.7 3.4 7.7 7.7 0 4.3-3.4 7.7-7.7 7.7z"/><path id="XMLID_2170_" class="st36" d="M286.3 237.4c1.5 0 2.7 1.2 2.7 2.7 0 2.8-.4 5.5-1.1 8.1-1.6 6-5 11.2-9.5 15.2-5.4 4.7-12.5 7.6-20.2 7.6s-14.8-2.9-20.2-7.6c-4.5-3.9-7.9-9.2-9.5-15.2-.7-2.6-1.1-5.3-1.1-8.1 0-1.5 1.2-2.7 2.7-2.7h56.2z"/><path id="XMLID_2150_" class="st26" d="M278.5 263.4c-5.4 4.7-12.5 7.6-20.2 7.6s-14.8-2.9-20.2-7.6c5.4-4.7 12.5-7.6 20.2-7.6s14.7 2.9 20.2 7.6z"/><path id="XMLID_2149_" class="st16" d="M286.3 237.4c1.5 0 2.7 1.2 2.7 2.7 0 2.8-.4 5.5-1.1 8.1h-59.5c-.7-2.6-1.1-5.3-1.1-8.1 0-1.5 1.2-2.7 2.7-2.7h56.3z"/><path id="XMLID_2236_" class="st166" d="M219 320.3v189c-6.1-.9-12-2-17.9-3.2-4.7-1-9.4-2.2-14-3.5-.5-.1-1-.3-1.5-.4V320.3c0-.8.1-1.6.2-2.4l.3-1.5c.3-1.2.8-2.4 1.4-3.5.2-.4.5-.9.8-1.3.9-1.4 2.1-2.7 3.5-3.7 2.6-2 5.9-3.1 9.4-3.1h3.6c.2 0 .4 0 .5.1.2 0 .5.1.7.1.1 0 .2 0 .3.1.2 0 .4.1.7.1.2 0 .4.1.6.2.1 0 .3.1.4.1.2.1.4.1.6.2.3.1.5.2.8.3.2.1.5.2.8.3 5.1 2.4 8.8 7.8 8.8 14z"/><path id="XMLID_2227_" class="st167" d="M210 306.3c-5.3 2.5-9 7.8-9 14.1v185.8c-4.7-1-9.4-2.2-14-3.5-.5-.1-1-.3-1.5-.4v-182c0-.8.1-1.6.2-2.4l.3-1.5c.3-1.2.8-2.4 1.4-3.5.2-.4.5-.9.8-1.3.9-1.4 2.1-2.7 3.5-3.7 2.6-2 5.9-3.1 9.4-3.1h3.6c.2 0 .4 0 .5.1.2 0 .5.1.7.1.1 0 .2 0 .3.1.2 0 .4.1.7.1.2 0 .4.1.6.2.1 0 .3.1.4.1.2.1.4.1.6.2.3.1.5.2.8.3.2.1.5.2.7.3z"/><path id="XMLID_2230_" class="st166" d="M330.6 320.3V501c-.2.1-.4.1-.6.2-5.7 1.7-11.5 3.2-17.4 4.6-5.1 1.2-10.3 2.2-15.5 3V320.3c0-8.6 6.9-15.5 15.5-15.5H316.2c.2 0 .4 0 .6.1.3 0 .6.1 1 .1.2 0 .5.1.7.1.2.1.5.1.7.2.1 0 .2 0 .2.1.2.1.5.1.7.2.3.1.5.2.8.3.3.1.5.2.8.3 2.1.9 3.9 2.3 5.3 4.1 2.2 2.7 3.6 6.2 3.6 10z"/><path id="XMLID_1838_" class="st167" d="M321.6 306.3c-5.3 2.5-9 7.8-9 14.1v185.4c-5.1 1.2-10.3 2.2-15.5 3V320.3c0-8.6 6.9-15.5 15.5-15.5H316.2c.2 0 .4 0 .6.1.3 0 .6.1 1 .1.2 0 .5.1.7.1.2.1.5.1.7.2.1 0 .2 0 .2.1.2.1.5.1.7.2.3.1.5.2.8.3.2.2.4.3.7.4z"/><path id="XMLID_1825_" class="st166" d="M219 398.7h78.1v24.4H219z"/><g id="XMLID_1818_"><path id="XMLID_1824_" d="M274 431.8h-34.4c-4.5 0-8.1-3.6-8.1-8.1v-31.3c0-4.5 3.6-8.1 8.1-8.1H274c4.5 0 8.1 3.6 8.1 8.1v31.3c0 4.4-3.6 8.1-8.1 8.1z" style="fill:#76cfb1"/><path id="XMLID_1822_" d="M255.2 431.8h-15.6c-4.5 0-8.1-3.6-8.1-8.1v-31.3c0-4.5 3.6-8.1 8.1-8.1h15.6c-4.5 0-8.1 3.6-8.1 8.1v31.3c0 4.4 3.6 8.1 8.1 8.1z" style="fill:#65af91"/><circle id="XMLID_1821_" class="st42" cx="256.8" cy="408" r="16.3"/><circle id="XMLID_1820_" cx="256.8" cy="408" r="11.5" style="fill:#a7cefc"/><path id="XMLID_1819_" d="M259.6 419.1c-.9.2-1.9.4-2.8.4-6.3 0-11.5-5.1-11.5-11.5 0-6.3 5.1-11.5 11.5-11.5 1 0 1.9.1 2.8.4-4.9 1.3-8.6 5.8-8.6 11.1s3.7 9.8 8.6 11.1z" style="fill:#98bde2"/><circle id="XMLID_1828_" cx="262.1" cy="405.8" r="4.2" style="fill:#cfe5f7"/><circle id="XMLID_1830_" cx="273.1" cy="390" r="3.8" style="fill:#514896"/></g></g></g></svg>