<svg xmlns="http://www.w3.org/2000/svg" viewBox="0 0 512 512"
    style="enable-background:new 0 0 512 512" xml:space="preserve"><style>.st6{fill:#da4545}.st26{fill:#b62a2a}.st265{fill:#5da186}.st267{fill:#e5c6be}.st268{fill:#d3b6b1}.st269{fill:none;stroke:#baa09c;stroke-width:10;stroke-linecap:round;stroke-miterlimit:10}.st270{fill:#f4d78f}</style><g id="BULINE"><circle id="XMLID_997_" cx="256" cy="256" r="256" style="fill:#76cfb1"/></g><g id="Icons"><g id="XMLID_3796_"><g id="XMLID_877_"><path id="XMLID_1007_" class="st265" d="M439.1 92v343c-14.7 15.1-31.3 28.3-49.4 39.4h-30.4c-6.4 0-11.6-5.2-11.6-11.6V92c0-6.4 5.2-11.6 11.6-11.6h68.1c6.5-.1 11.7 5.2 11.7 11.6z"/><path id="XMLID_1020_" class="st265" d="M108 194v270.9c-15.2-10.8-29.2-23.2-41.7-37-3.7-4-7.2-8.2-10.6-12.5-2.3-2.9-4.5-5.8-6.6-8.7C18.2 364.4 0 312.3 0 256c0-25.6 3.8-50.3 10.8-73.7h85.6c6.4 0 11.6 5.3 11.6 11.7z"/><path id="XMLID_1115_" d="M512 256c0 69.6-27.8 132.8-72.9 179-14.7 15.1-31.3 28.3-49.4 39.4-1 .6-2.1 1.3-3.1 1.9C348.3 499 303.7 512 256 512c-37.2 0-72.5-7.9-104.4-22.2-10.5-4.7-20.6-10.1-30.3-16.1-.2-.1-.4-.3-.7-.4-4.3-2.7-8.5-5.5-12.6-8.4-15.2-10.8-29.2-23.2-41.7-37-3.7-4-7.2-8.2-10.6-12.5V143.1c0-6.4 5.2-11.6 11.6-11.6h68.1c6.4 0 11.6 5.2 11.6 11.6v105.2c1.7-2.4 4.4-3.9 7.5-3.9h222.6c5.1 0 9.2 4.1 9.2 9.2v-46.4c0-4.3 3.5-7.8 7.8-7.8h111.5c4.2 18.2 6.4 37.1 6.4 56.6z" style="fill:#68b596"/><g id="XMLID_895_"><path id="XMLID_969_" d="M379.5 87.6c-5.8-5.9-16.5-13.4-31.3-19-3.9-22.9-23.1-40.2-46.5-42C241 22 206 37.7 185.8 57.5c-28.6 6.1-46.3 18.5-56.3 26.6-7.7 6.2-10.2 24.1-7.9 32.6l16.7 61.2c2.9-.8 6-2.6 9.2-5.2v-18.8c0-18.8 4.9-36.5 13.5-51.9-.5 2-.9 4-1.2 5.8-.9 5.3 4.7 9.4 9.5 6.8 7-3.8 14.4-6.8 22.1-9 44.5-12.9 97.5-1.8 120.4 4.3 5.2 1.4 10.5 1.3 15.3 0 6.9-1.9 13-6.2 17-12.2.7 1.1 1.4 2.2 2 3.4 8.9 15.6 14 33.6 14 52.8v16.6h2.4c4.5 0 8.4 2 11.1 5.1l12-55.4c2-8.6 0-26.4-6.1-32.6z" style="fill:#1b305c"/><path id="XMLID_1060_" class="st6" d="M386.6 375.1v101.1C348.3 499 303.7 512 256 512c-37.2 0-72.5-7.9-104.4-22.2-10.5-4.7-20.6-10.1-30.3-16.1-.2-.1-.4-.3-.7-.4v-98.2c0-25.8 20.9-46.6 46.6-46.6h172.6c2.6 0 5.2.2 7.8.6 22.1 3.7 39 22.9 39 46z"/><path id="XMLID_998_" class="st26" d="M198.2 328.5c-2.8 0-5.6.2-8.3.7-21.8 3.9-38.3 23-38.3 45.9v114.7c-10.5-4.7-20.6-10.1-30.3-16.1v-98.6c0-25.8 20.9-46.6 46.7-46.6h30.2z"/><path id="XMLID_965_" class="st267" d="M261.3 347.9h-15c-12 0-21.8-9.8-21.8-21.8v-35.9c0-12 9.8-21.8 21.8-21.8h15c12 0 21.8 9.8 21.8 21.8v35.9c0 12.1-9.8 21.8-21.8 21.8z"/><path id="XMLID_964_" class="st268" d="M264 347.7c-1 .2-2.1.2-3.1.2h-15c-12 0-21.8-9.8-21.8-21.8v-35.9c0-12 9.8-21.8 21.8-21.8h15c1.1 0 2.1.1 3.1.2-10.5 1.5-18.6 10.6-18.6 21.6v35.9c0 11 8.1 20.1 18.6 21.6z"/><path id="XMLID_963_" class="st267" d="M373.8 175.5c-2.7-3.1-6.7-5.1-11.1-5.1h-2.4v-16.6c0-19.2-5.1-37.2-14-52.8-.7-1.1-1.3-2.3-2-3.4-3.9 6-10 10.4-17 12.2-4.8 1.3-10.1 1.4-15.3 0-22.9-6.1-75.9-17.2-120.4-4.3-7.7 2.2-15.1 5.2-22.1 9-4.8 2.6-10.5-1.4-9.5-6.8.3-1.8.7-3.7 1.2-5.8-8.6 15.3-13.5 33-13.5 51.9v48c0 4 .2 8 .7 12 0 .1 0 .3.1.4.1.6.1 1.2.2 1.8 0 .2.1.4.1.5.1.7.2 1.4.3 2.2.1.8.3 1.6.4 2.4.2.8.3 1.6.5 2.4.5 2.4 1 4.7 1.7 7 .2.8.5 1.7.7 2.5.2.8.5 1.5.7 2.3.2.7.4 1.3.7 1.9.1.2.1.4.2.6.2.5.3 1 .5 1.4.1.3.3.7.4 1 .2.5.4.9.6 1.4.1.2.2.5.3.7.2.4.4.9.6 1.3.2.5.4.9.6 1.4.1.3.2.5.3.7.3.6.5 1.1.8 1.7.1.2.2.4.3.5l.6 1.2c.3.5.5 1 .8 1.5v.1c.3.7.7 1.3 1.1 2 .5.9 1 1.8 1.6 2.8l.9 1.5c.8 1.4 1.7 2.8 2.6 4.1l1.5 2.1c1.6 2.2 3.2 4.3 4.9 6.4.4.6.9 1.1 1.4 1.6.5.6 1 1.1 1.5 1.7.5.5.9 1 1.4 1.6.3.3.6.6.8.9.3.4.7.7 1 1 .4.5.9.9 1.4 1.4l1.2 1.2c.5.5 1 1 1.5 1.4 1.2 1.1 2.5 2.2 3.8 3.3 1.3 1.1 2.6 2.1 3.9 3.1.1 0 .1.1.1.1l2.1 1.5 2.1 1.5c.7.5 1.4.9 2.1 1.4.7.5 1.4.9 2.2 1.4.7.4 1.5.9 2.2 1.3.7.4 1.5.8 2.2 1.3.7.4 1.5.8 2.3 1.2.8.4 1.5.8 2.3 1.1 3.1 1.5 6.3 2.8 9.5 4 .8.3 1.6.6 2.5.9.8.3 1.7.6 2.5.8.8.3 1.7.5 2.5.7.8.2 1.7.5 2.5.7.8.2 1.7.4 2.6.6.9.2 1.7.4 2.6.6.9.2 1.7.3 2.6.5.9.2 1.8.3 2.6.4.9.1 1.8.3 2.7.4l2.7.3c.9.1 1.8.2 2.7.2l5.4.3h2.7c2.6 0 5.1-.1 7.6-.3 1.7-.1 3.3-.3 5-.5l2.4-.3c.1 0 .2 0 .3-.1l1.8-.3c.3 0 .6-.1.9-.1.3-.1.6-.1.9-.2 19.8-3.6 37.8-12.6 52.2-25.6 18.8-17 31.6-40.5 34.6-67.1h3.1c8.1 0 14.7-6.6 14.7-14.7v-14.1c-.2-3.3-1.5-6.6-3.7-9.2z"/><path id="XMLID_962_" class="st268" d="M272.3 306.5c-49.7-9-87.3-52.4-87.3-104.6v-48.1c0-18 4.5-35 12.4-49.9-2.1.5-4.2 1-6.3 1.6-7.7 2.2-15.1 5.2-22.1 9-4.8 2.6-10.5-1.4-9.5-6.8.2-1.1 1.6-4.5 1.5-5.8-6 11.4-11.7 26.2-13.3 39.6-.5 4-.7 8.1-.7 12.3v16.6h-2c-8.1 0-14.7 6.6-14.7 14.7v14.1c0 8.1 6.6 14.7 14.7 14.7h2.7c0 .1 0 .3.1.4.1.6.1 1.2.2 1.8 0 .2.1.4.1.5.1.7.2 1.4.3 2.2.1.8.3 1.6.4 2.4.2.8.3 1.6.5 2.4.5 2.4 1 4.7 1.7 7 .2.8.5 1.7.7 2.5.2.8.5 1.5.7 2.3.2.7.4 1.3.7 1.9.1.2.1.4.2.6.2.5.3 1 .5 1.4.1.3.3.7.4 1 .2.5.4.9.6 1.4.1.2.2.5.3.7.2.4.4.9.6 1.3.2.5.4.9.6 1.4.1.3.2.5.3.7.3.6.5 1.1.8 1.7.1.2.2.4.3.5l.6 1.2c.3.5.5 1 .8 1.5v.1c.3.7.7 1.3 1.1 2 .5.9 1 1.8 1.6 2.8l.9 1.5c.8 1.4 1.7 2.8 2.6 4.1l1.5 2.1c1.6 2.2 3.2 4.3 4.9 6.4.4.6.9 1.1 1.4 1.6.5.6 1 1.1 1.5 1.7.5.5.9 1 1.4 1.6.3.3.6.6.8.9.3.4.7.7 1 1 .4.5.9.9 1.4 1.4l1.2 1.2c.5.5 1 1 1.5 1.4 2.5 2.2 5 4.4 7.7 6.4.1 0 .1.1.1.1l2.1 1.5 2.1 1.5c.7.5 1.4.9 2.1 1.4.7.5 1.4.9 2.2 1.4.7.4 1.5.9 2.2 1.3.7.4 1.5.8 2.2 1.3.7.4 1.5.8 2.3 1.2.8.4 1.5.8 2.3 1.1 3.1 1.5 6.3 2.9 9.5 4 .8.3 1.6.6 2.5.9.8.3 1.7.6 2.5.8.8.3 1.7.5 2.5.7.8.2 1.7.5 2.5.7.8.2 1.7.4 2.6.6.9.2 1.7.4 2.6.6.9.2 1.7.3 2.6.5.9.2 1.8.3 2.6.4.9.1 1.8.3 2.7.4l2.7.3c.9.1 1.8.2 2.7.2l5.4.3h2.7c1.5 0 3 0 4.4-.1 1.1 0 2.1-.1 3.2-.2 1.7-.1 3.3-.3 5-.5l2.4-.3c.1 0 .2 0 .3-.1l1.8-.3c.3 0 .6-.1.9-.1.4.1.7.1 1 0z"/><path id="XMLID_961_" class="st268" d="M260.2 218.5H247c-4.3 0-7.9-3.5-7.9-7.9 0-4.3 3.5-7.9 7.9-7.9h13.2c4.3 0 7.9 3.5 7.9 7.9-.1 4.4-3.6 7.9-7.9 7.9z"/><path id="XMLID_960_" d="M282.4 236.4c1.5 0 2.8 1.2 2.8 2.8 0 2.9-.4 5.6-1.1 8.3-1.7 6.1-5.1 11.5-9.8 15.6-5.5 4.8-12.8 7.8-20.7 7.8-7.9 0-15.2-2.9-20.7-7.8-4.6-4-8.1-9.4-9.8-15.6-.7-2.6-1.1-5.4-1.1-8.3 0-1.5 1.2-2.8 2.8-2.8h57.6z" style="fill:#4c3328"/><path id="XMLID_958_" class="st26" d="M274.3 263.1c-5.5 4.8-12.8 7.8-20.7 7.8-7.9 0-15.2-2.9-20.7-7.8 5.5-4.8 12.8-7.8 20.7-7.8 7.9 0 15.2 2.9 20.7 7.8z"/><path id="XMLID_957_" d="M282.4 236.4c1.5 0 2.8 1.2 2.8 2.8 0 2.9-.4 5.6-1.1 8.3h-61c-.7-2.6-1.1-5.4-1.1-8.3 0-1.5 1.2-2.8 2.8-2.8h57.6z" style="fill:#fff"/><path id="XMLID_956_" class="st269" d="M215.7 187.5c0-6.8-5.5-12.3-12.3-12.3s-12.3 5.5-12.3 12.3"/><path id="XMLID_955_" class="st269" d="M319.1 187.5c0-6.8-5.5-12.3-12.3-12.3-6.8 0-12.3 5.5-12.3 12.3"/><path id="XMLID_952_" class="st26" d="m310.9 323.8-22.7-1.7c-3-.2-5.8 1.6-6.8 4.4-7.7 22.3-25.2 21.7-27.8 21.5h-.4c-2.5.2-20.1.9-27.8-21.5-1-2.8-3.8-4.6-6.8-4.4l-22.7 1.7c-4.6.3-7.5 5.1-5.7 9.3 5.7 13.6 19.3 39.5 43.6 49.6 8.7 3.6 18.2-2.1 19.6-11.1 1.3 9 10.9 14.7 19.6 11.1 24.3-10.2 37.9-36 43.6-49.6 1.8-4.2-1.1-9-5.7-9.3z"/><path id="XMLID_951_" class="st26" d="M350.8 435.2h-50.9c-3 0-5.4-2.4-5.4-5.4v-13c0-3 2.4-5.4 5.4-5.4h50.9c3 0 5.4 2.4 5.4 5.4v13c0 3-2.4 5.4-5.4 5.4z"/><path id="XMLID_947_" class="st270" d="M214.1 455.4c-3.8 0-6.8-3.1-6.8-6.8V320.2c0-3.8 3.1-6.8 6.8-6.8 3.8 0 6.8 3.1 6.8 6.8v128.3c.1 3.8-3 6.9-6.8 6.9z"/><path id="XMLID_946_" class="st270" d="M294.5 455.4c-3.8 0-6.8-3.1-6.8-6.8V320.2c0-3.8 3.1-6.8 6.8-6.8 3.8 0 6.8 3.1 6.8 6.8v128.3c0 3.8-3 6.9-6.8 6.9z"/><g id="XMLID_934_"><path id="XMLID_945_" d="M296.5 441.4h-14.4l-2.8-8.1c-1.1-3.1-4-5.3-7.4-5.3h-36.4c-3.3 0-6.3 2.1-7.4 5.3l-2.8 8.1h-14.4c-5.1 0-9.3 4.2-9.3 9.3v44.7c0 5.1 4.2 9.3 9.3 9.3h85.4c5.1 0 9.3-4.2 9.3-9.3v-44.7c.2-5.2-4-9.3-9.1-9.3z" style="fill:#e9b12d"/><path id="XMLID_944_" d="M259.3 428c-3.3 0-6.3 2.1-7.4 5.3l-2.8 8.1h-14.4c-5.1 0-9.3 4.2-9.3 9.3v44.7c0 5.1 4.2 9.3 9.3 9.3H211c-5.1 0-9.3-4.2-9.3-9.3v-44.7c0-5.1 4.2-9.3 9.3-9.3h14.4l2.8-8.1c1.1-3.1 4-5.3 7.4-5.3h23.7z" style="fill:#e39123"/><path id="XMLID_943_" d="M220.1 433.5h-5.9c-1.7 0-3 1.4-3 3v4.9h12v-4.9c-.1-1.7-1.4-3-3.1-3z" style="fill:#b06f1e"/><circle id="XMLID_942_" cx="253.8" cy="475.7" r="21.9" style="fill:#233e76"/><circle id="XMLID_941_" cx="253.8" cy="475.7" r="15.9" style="fill:#5ba0f5"/><path id="XMLID_940_" d="M257.6 491.2c-1.2.3-2.5.4-3.8.4-8.8 0-15.9-7.1-15.9-15.9s7.1-15.9 15.9-15.9c1.3 0 2.6.2 3.8.4-7 1.7-12.2 8-12.2 15.5s5.2 13.8 12.2 15.5z" style="fill:#4e88c0"/><circle id="XMLID_939_" cx="261.6" cy="473.5" r="5" style="fill:#83c3f1"/></g><path id="XMLID_924_" class="st267" d="M114.1 253.9c-4.8-1.2-9.5 1.8-10.7 6.5l-10 41.5-10-41.5c-1.2-4.8-5.9-7.7-10.7-6.5s-7.7 5.9-6.5 10.7l9.5 39.3h-16c-5.8 0-10.6 4.7-10.6 10.6v25.8c0 12.8 10.4 23.1 23.1 23.1H88c12.8 0 23.1-10.4 23.1-23.1v-36.4l9.5-39.3c1.2-4.8-1.7-9.6-6.5-10.7z"/><path id="XMLID_923_" class="st268" d="M58.3 350.4c-3.5-3.5-3.5-9.1 0-12.6l11.5-11.5c3.5-3.5 9.1-3.5 12.6 0s3.5 9.1 0 12.6l-11.5 11.5c-3.5 3.4-9.1 3.4-12.6 0z"/><path id="XMLID_1001_" class="st6" d="M108 362.8v102.1c-15.2-10.8-29.2-23.2-41.7-37-3.7-4-7.2-8.2-10.6-12.5-2.3-2.9-4.5-5.8-6.6-8.7v-43.9c0-.4 0-.9.1-1.3.1-.3.2-.7.3-1 0-.1.1-.2.1-.3.1-.3.3-.6.5-.9.4-.7 1-1.2 1.7-1.7.3-.2.6-.4.9-.5.1-.1.2-.1.3-.1.3-.1.7-.2 1-.3.4-.1.8-.1 1.3-.1h46.3c.8 0 1.6.2 2.4.5 2.4.7 4 3 4 5.7z"/><path id="XMLID_1004_" class="st26" d="M72.6 356.4c-3.4 0-6.2 2.8-6.3 6.2v65.3c-3.7-4-7.2-8.2-10.6-12.5-2.3-2.9-4.5-5.8-6.6-8.7v-43.9c0-.4 0-.9.1-1.3.1-.3.2-.7.3-1 0-.1.1-.2.1-.3.1-.3.3-.6.5-.9.4-.7 1-1.2 1.7-1.7.3-.2.6-.4.9-.5.1-.1.2-.1.3-.1.3-.1.7-.2 1-.3.4-.1.8-.1 1.3-.1h17.3z"/></g></g><path id="XMLID_3367_" d="M300.7 38.5c8.6 4.3 20.8 12.8 27.7 28.9 1.5 3.5-2.1 7.1-5.6 5.5-2.3-1.1-4.6 1.2-3.6 3.5 1.5 3.3 3.2 7.6 4.8 11.8 1.6 4.4-4.1 7.7-7.1 4.1-8-9.4-19.9-20.4-32.4-21.9-1.4-.2-2.2-1.7-1.4-2.9 1.8-2.9 5.3-7.2 10.9-8.7 5-1.3 8.2-6.3 7.2-11.4-.4-2-1.3-4-2.8-6.1-1.2-1.6.5-3.7 2.3-2.8z" style="fill:#29477c"/></g></g></svg>